<svg xmlns:inkscape="http://www.inkscape.org/namespaces/inkscape" xmlns:sodipodi="http://sodipodi.sourceforge.net/DTD/sodipodi-0.dtd" xmlns="http://www.w3.org/2000/svg" xmlns:svg="http://www.w3.org/2000/svg" xmlns:rdf="http://www.w3.org/1999/02/22-rdf-syntax-ns#" xmlns:cc="http://creativecommons.org/ns#" xmlns:dc="http://purl.org/dc/elements/1.1/" viewBox="0 0 16.933333 21.1666675" version="1.1" x="0px" y="0px"><g><path style="color:#000000;" d="m 8.4677488,0.79374921 c -1.825154,0 -3.3124616,1.47527899 -3.3124616,3.28920399 0,1.813925 1.4873076,3.286623 3.3124616,3.286623 1.8251542,0 3.3124592,-1.472698 3.3124592,-3.286623 0,-1.813925 -1.487305,-3.28920399 -3.3124592,-3.28920399 z m 0,0.52916599 c 1.5414732,0 2.7832922,1.234414 2.7832922,2.760038 0,1.525625 -1.241819,2.757456 -2.7832922,2.757456 -1.5414731,0 -2.7832949,-1.231831 -2.7832949,-2.757456 0,-1.525624 1.2418218,-2.760038 2.7832949,-2.760038 z m -0.00212,6.802686 c -3.5123595,0 -6.3494813,2.8134888 -6.3494813,6.3009068 v 1.449006 a 0.26460995,0.26460995 0 0 0 0.2656152,0.264068 H 14.553631 a 0.26460995,0.26460995 0 0 0 0.263549,-0.264068 v -1.449006 c 0,-3.487476 -2.839189,-6.3009068 -6.3515512,-6.3009068 z M 8.2020833,8.6609702 V 15.609899 H 2.6453651 v -1.183391 c 0,-2.127449 1.1441694,-3.976058 2.8597727,-4.9769558 v 1.6236718 c -0.5303414,0.119978 -0.9296585,0.593942 -0.9296585,1.15807 0,0.654323 0.5376122,1.189075 1.1932073,1.189075 0.6555978,0 1.1952764,-0.534752 1.1952764,-1.189075 0,-0.563218 -0.4001902,-1.036627 -0.9296585,-1.157552 V 9.1761822 C 6.6979853,8.8754862 7.4296826,8.6946462 8.202131,8.6609702 Z m 0.5291667,0 c 0.8832823,0.03875 1.713436,0.269941 2.449462,0.652671 v 1.7554498 c -0.62842,0.122274 -1.107424,0.672587 -1.107424,1.332217 v 1.74408 a 0.26458349,0.26458349 0 0 0 0.0031,0.04238 0.26458349,0.26458349 0 0 0 0.0011,0.0052 0.26458349,0.26458349 0 0 0 0,0.0011 0.26458349,0.26458349 0 0 0 0.0098,0.03721 0.26458349,0.26458349 0 0 0 0.0026,0.0078 0.26458349,0.26458349 0 0 0 0.0011,0.0026 0.26458349,0.26458349 0 0 0 0.01654,0.03462 0.26458349,0.26458349 0 0 0 0.0021,0.0031 0.26458349,0.26458349 0 0 0 0.02585,0.03721 0.26458349,0.26458349 0 0 0 0.02997,0.02997 0.26458349,0.26458349 0 0 0 0.0072,0.0057 0.26458349,0.26458349 0 0 0 0.03049,0.02119 0.26458349,0.26458349 0 0 0 0.0062,0.0036 0.26458349,0.26458349 0 0 0 0.03876,0.0181 0.26458349,0.26458349 0 0 0 0.04186,0.01138 0.26458349,0.26458349 0 0 0 0.0041,5.29e-4 0.26458349,0.26458349 0 0 0 0.04496,0.0041 h 0.503846 A 0.26458349,0.26458349 0 0 0 11.10848,14.145559 0.26458349,0.26458349 0 0 0 10.842864,13.881495 H 10.60257 v -1.480016 c 0,-0.461947 0.369273,-0.828371 0.841809,-0.828371 0.47253,0 0.841809,0.366424 0.841809,0.828371 v 1.480016 H 12.04589 a 0.26458349,0.26458349 0 0 0 -0.265615,0.264064 0.26458349,0.26458349 0 0 0 0.265615,0.265618 h 0.503846 a 0.26458349,0.26458349 0 0 0 0.01603,-5.29e-4 0.26458349,0.26458349 0 0 0 0.0057,-5.29e-4 0.26458349,0.26458349 0 0 0 0.0041,-5.29e-4 0.26458349,0.26458349 0 0 0 0.01394,-0.0016 0.26458349,0.26458349 0 0 0 0.0093,-0.0016 0.26458349,0.26458349 0 0 0 0.0021,0 0.26458349,0.26458349 0 0 0 0.0078,-0.0021 0.26458349,0.26458349 0 0 0 5.29e-4,0 0.26458349,0.26458349 0 0 0 0.0047,-0.0011 0.26458349,0.26458349 0 0 0 0.0036,-0.0011 0.26458349,0.26458349 0 0 0 0.0041,-0.0011 0.26458349,0.26458349 0 0 0 0.0041,-0.0011 0.26458349,0.26458349 0 0 0 0.0036,-0.0011 0.26458349,0.26458349 0 0 0 0.0047,-0.0016 0.26458349,0.26458349 0 0 0 0.01035,-0.0036 0.26458349,0.26458349 0 0 0 0.0057,-0.0021 0.26458349,0.26458349 0 0 0 0.0093,-0.0041 0.26458349,0.26458349 0 0 0 0.0062,-0.0031 0.26458349,0.26458349 0 0 0 0.0083,-0.0041 0.26458349,0.26458349 0 0 0 0.0067,-0.0036 0.26458349,0.26458349 0 0 0 0.02066,-0.01291 0.26458349,0.26458349 0 0 0 0.0011,-5.29e-4 0.26458349,0.26458349 0 0 0 0.01188,-0.0088 0.26458349,0.26458349 0 0 0 0.0016,-0.0016 0.26458349,0.26458349 0 0 0 0.0041,-0.0031 0.26458349,0.26458349 0 0 0 0.0026,-0.0021 0.26458349,0.26458349 0 0 0 0.0041,-0.0036 0.26458349,0.26458349 0 0 0 0.0021,-0.0021 0.26458349,0.26458349 0 0 0 0.0011,-5.29e-4 0.26458349,0.26458349 0 0 0 0.0083,-0.0083 0.26458349,0.26458349 0 0 0 0.0031,-0.0031 0.26458349,0.26458349 0 0 0 0.0083,-0.0088 0.26458349,0.26458349 0 0 0 0.0031,-0.0041 0.26458349,0.26458349 0 0 0 0.0036,-0.0041 0.26458349,0.26458349 0 0 0 0.0021,-0.0021 0.26458349,0.26458349 0 0 0 0.0016,-0.0021 0.26458349,0.26458349 0 0 0 0.0036,-0.0047 0.26458349,0.26458349 0 0 0 0.0057,-0.0083 0.26458349,0.26458349 0 0 0 0.0041,-0.0057 0.26458349,0.26458349 0 0 0 0.0047,-0.0078 0.26458349,0.26458349 0 0 0 0.0041,-0.0072 0.26458349,0.26458349 0 0 0 0.0036,-0.0067 0.26458349,0.26458349 0 0 0 5.29e-4,-5.29e-4 0.26458349,0.26458349 0 0 0 0.0067,-0.01394 0.26458349,0.26458349 0 0 0 5.3e-4,-0.0016 0.26458349,0.26458349 0 0 0 0.0016,-0.0036 0.26458349,0.26458349 0 0 0 0.0016,-0.0041 0.26458349,0.26458349 0 0 0 0.0021,-0.0057 0.26458349,0.26458349 0 0 0 0.0011,-0.0026 0.26458349,0.26458349 0 0 0 0.0047,-0.01241 0.26458349,0.26458349 0 0 0 0.0011,-0.0036 0.26458349,0.26458349 0 0 0 0.0031,-0.01188 0.26458349,0.26458349 0 0 0 0.0011,-0.0047 0.26458349,0.26458349 0 0 0 0.0021,-0.01138 0.26458349,0.26458349 0 0 0 0.0011,-0.0052 0.26458349,0.26458349 0 0 0 0.0011,-0.0088 0.26458349,0.26458349 0 0 0 0.0011,-0.0083 0.26458349,0.26458349 0 0 0 0.0011,-0.01707 0.26458349,0.26458349 0 0 0 0,-0.0083 v -1.744081 c 0,-0.659109 -0.477674,-1.209362 -1.105361,-1.332216 V 9.6249922 c 1.557824,1.0328458 2.578137,2.7925688 2.578137,4.8007398 v 1.183392 H 8.7320993 Z M 5.768639,11.572937 c 0.371221,0 0.6661097,0.291632 0.6661097,0.658357 0,0.366723 -0.2948887,0.659908 -0.6661097,0.659908 -0.3712183,0 -0.6640406,-0.293185 -0.6640406,-0.659908 0,-0.366725 0.2928223,-0.658357 0.6640406,-0.658357 z" fill="#000000" stroke-width="1"/></g><text x="0" y="31.933334" fill="#000000" font-size="5px" font-weight="bold" font-family="'Helvetica Neue', Helvetica, Arial-Unicode, Arial, Sans-serif">Created by Alzam</text><text x="0" y="36.933334" fill="#000000" font-size="5px" font-weight="bold" font-family="'Helvetica Neue', Helvetica, Arial-Unicode, Arial, Sans-serif">from the Noun Project</text></svg>