<svg xmlns="http://www.w3.org/2000/svg" data-name="Layer 1" viewBox="0 0 100 125" x="0px" y="0px"><path d="M89.35431,25.82748c-3.54912-9.72944-9.44807-13.148-13.77166-14.30257-6.65209-1.77629-14.62115.52477-21.31895,6.15636a1.89556,1.89556,0,0,1-1.2103.48985,1.703,1.703,0,0,1-.78353-.20374l-.53166-.37217A28.69227,28.69227,0,0,0,39.5027,11.39014a19.123,19.123,0,0,0-9.233.20953V7H15.106v6.84126H8.75618V29.0099H15.106v3.618A29.13389,29.13389,0,0,0,16.85,47.1126a2.598,2.598,0,0,0,.139.29318l7.1614,12.943c1.74773,12.60119,4.46109,19.56931,11.03494,28.45016.95717,1.29547,3.10364,4.20122,6.59029,4.201a6.53265,6.53265,0,0,0,.8571-.05735,7.78456,7.78456,0,0,0,6.464-6.3838L53.0534,67.69784l3.95752,18.86431a7.79664,7.79664,0,0,0,6.46821,6.38037A6.49891,6.49891,0,0,0,64.33589,93c3.48173-.00008,5.62837-2.90545,6.58368-4.19838,6.5747-8.87471,9.28806-15.84287,11.0368-28.45245l7.16614-12.94271a2.58947,2.58947,0,0,0,.14037-.29644A30.2129,30.2129,0,0,0,89.35431,25.82748Zm-75.39662-2.0191v-4.7656h6.34985V12.20152h4.76061v6.84126h6.35476v4.7656H25.06815v6.84126H20.30754V23.80838ZM84.48991,45.03487l-7.31972,13.22a2.60449,2.60449,0,0,0-.30206.91133C75.2374,71.22872,72.871,77.42944,66.738,85.708c-1.43532,1.94257-2.1082,2.14025-2.57451,2.07824A2.65085,2.65085,0,0,1,62.101,85.49073l-4.78042-22.7861a4.32235,4.32235,0,0,0-8.53272-.00838L44.0056,85.49234a2.64161,2.64161,0,0,1-2.05724,2.29387c-.46884.06226-1.14426-.13593-2.58078-2.08015-6.13261-8.2845-8.4992-14.48539-10.12907-26.53984a2.60058,2.60058,0,0,0-.30156-.91065L21.6213,45.03382a23.48019,23.48019,0,0,1-1.55309-9.18266H30.26967V29.0099h6.35476V16.183c4.34255.43287,8.62923,2.75268,11.87476,5.48234a7.75851,7.75851,0,0,0,.99222.70644c3.9792,2.78922,8.06557,5.62275,12.8719,5.62275a13.08928,13.08928,0,0,0,4.88776-.97783l-1.92449-4.83248c-2.64681,1.05423-4.90749.667-7.526-.67749,5.3545-4.42646,11.48432-6.27963,16.44-4.95643,4.48868,1.19858,8.02511,5.023,10.22762,11.06085A24.98213,24.98213,0,0,1,84.48991,45.03487Z"/><text x="0" y="115" fill="#000000" font-size="5px" font-weight="bold" font-family="'Helvetica Neue', Helvetica, Arial-Unicode, Arial, Sans-serif">Created by redemption_art</text><text x="0" y="120" fill="#000000" font-size="5px" font-weight="bold" font-family="'Helvetica Neue', Helvetica, Arial-Unicode, Arial, Sans-serif">from the Noun Project</text></svg>